<svg id="Capa_1" enable-background="new 0 0 512 512" height="512" viewBox="0 0 512 512" width="512" xmlns="http://www.w3.org/2000/svg"><g><path d="m406 155.372-30 146.1-120 30-120-30-30-152.398 30-118.801 120-30 120 30z" fill="#f2f2fc"/><path d="m406 155.372-30 146.1-120 30v-331.199l120 30z" fill="#e2d9fb"/><path d="m376.176 30.463-.176-.044v270.909l.176-.044 135.824 30.337v-331.495z" fill="#c7c1dc"/><path d="m256 31.196-119.775 30.096-30.225 87.782 30.172 121.393 119.828 30.082 119.792-30.091 30.208-115.085-30.208-94.084z" fill="#97de3d"/><path d="m375.792 270.458 30.208-115.085-30.208-94.084-119.792-30.093v269.353z" fill="#59c36a"/><path d="m135.824 30.463-135.824-30.337v331.495l135.824-30.337.176.044v-270.909z" fill="#e2d9fb"/><path d="m136 61.242-106-23.676v256.615l106-23.676z" fill="#59c36a"/><g><path d="m241 405.874h30v106h-30z" fill="#613d5c"/></g><path d="m256 405.874h15v106h-15z" fill="#4b2746"/><path d="m256 240.874c-49.501 0-90 40.499-90 90 0 49.499 40.499 90 90 90s90-40.501 90-90c0-49.501-40.499-90-90-90z" fill="#613d5c"/><path d="m346 330.874c0 49.499-40.499 90-90 90v-180c49.501 0 90 40.499 90 90z" fill="#4b2746"/><circle cx="256" cy="330.874" fill="#f2f2fc" r="60"/><path d="m316 330.874c0 32.999-27.001 60-60 60v-120c32.999 0 60 26.998 60 60z" fill="#e2d9fb"/></g><path d="m376 270.505 106 23.676v-256.615l-106 23.676z" fill="#00a66c"/></svg>