<svg id="Capa_1" enable-background="new 0 0 497.5 497.5" height="512" viewBox="0 0 497.5 497.5" width="512" xmlns="http://www.w3.org/2000/svg"><g><path d="m403.166 158.69v321.44c0 9.6-7.57 17.37-16.9 17.37h-275.03c-9.34 0-16.9-7.77-16.9-17.37v-321.44c0-9.59 7.56-17.37 16.9-17.37h275.03c9.33 0 16.9 7.78 16.9 17.37z" fill="#5de1c4"/><path d="m403.166 223.68v256.45c0 9.6-7.57 17.37-16.9 17.37h-275.03c-9.34 0-16.9-7.77-16.9-17.37v-256.45z" fill="#037e73"/><path d="m403.166 253.68v226.45c0 9.6-7.57 17.37-16.9 17.37h-275.03c-9.34 0-16.9-7.77-16.9-17.37v-226.45z" fill="#01998d"/><path d="m94.338 326.618v154.926h-41.176c-11.375 0-20.588-8.987-20.588-20.074v-79.985c0-6.352 3.078-12.322 8.297-16.11z" fill="#008b81"/><path d="m94.338 410.968v70.577h-41.176c-11.375 0-20.588-8.987-20.588-20.074v-46.756c8.925 9.089 26.713 14.844 61.764-3.747z" fill="#5de1c4"/><path d="m403.162 326.618v154.926h41.176c11.375 0 20.588-8.987 20.588-20.074v-79.985c0-6.352-3.078-12.322-8.297-16.11z" fill="#008b81"/><path d="m403.162 410.968v70.577h41.176c11.375 0 20.588-8.987 20.588-20.074v-46.756c-8.925 9.089-26.713 14.844-61.764-3.747z" fill="#5de1c4"/><g><path d="m311.515 56.176c-4.142 0-7.5-3.358-7.5-7.5v-22.141c0-6.36-5.175-11.535-11.535-11.535h-85.46c-6.36 0-11.535 5.175-11.535 11.535v22.141c0 4.142-3.358 7.5-7.5 7.5s-7.5-3.358-7.5-7.5v-22.141c0-14.631 11.904-26.535 26.535-26.535h85.459c14.631 0 26.535 11.904 26.535 26.535v22.141c.001 4.142-3.357 7.5-7.499 7.5z" fill="#d8aa5e"/></g><g><path d="m443.828 83.36v64.46c0 19.15-14.97 34.68-33.45 34.68h-323.16c-18.48 0-33.46-15.53-33.46-34.68v-64.46c0-19.16 14.98-34.68 33.46-34.68h323.16c18.48 0 33.45 15.52 33.45 34.68z" fill="#a44f3e"/><path d="m443.828 107.36v40.46c0 19.15-14.97 34.68-33.45 34.68h-323.16c-18.48 0-33.46-15.53-33.46-34.68v-40.46c0-19.16 14.98-34.68 33.46-34.68h323.16c18.48 0 33.45 15.52 33.45 34.68z" fill="#bb5d4c"/></g><path d="m116.471 83.357v64.463c0 19.154-14.978 34.68-33.456 34.68s-33.456-15.526-33.456-34.68v-64.463c0-19.154 14.978-34.68 33.456-34.68s33.456 15.526 33.456 34.68z" fill="#d8aa5e"/><path d="m447.941 83.357v64.463c0 19.154-14.978 34.68-33.456 34.68s-33.456-15.526-33.456-34.68v-64.463c0-19.154 14.978-34.68 33.456-34.68 18.478-.001 33.456 15.526 33.456 34.68z" fill="#d8aa5e"/><path d="m166.985 285.441h-1.177c-11.046 0-20-8.954-20-20v-128.696h41.176v128.697c.001 11.045-8.953 19.999-19.999 19.999z" fill="#e8ad8c"/><path d="m192.248 254.559h-51.702c-2.779 0-5.031-2.253-5.031-5.031v-20.82c0-2.779 2.253-5.031 5.031-5.031h51.702c2.779 0 5.031 2.253 5.031 5.031v20.82c0 2.778-2.252 5.031-5.031 5.031z" fill="#d7d0d6"/><path d="m331.691 285.441h-1.177c-11.046 0-20-8.954-20-20v-128.696h41.176v128.697c.001 11.045-8.953 19.999-19.999 19.999z" fill="#e8ad8c"/><path d="m356.954 254.559h-51.702c-2.779 0-5.031-2.253-5.031-5.031v-20.82c0-2.779 2.253-5.031 5.031-5.031h51.702c2.779 0 5.031 2.253 5.031 5.031v20.82c0 2.778-2.252 5.031-5.031 5.031z" fill="#d7d0d6"/><path d="m369.926 389.57v67.7c0 7.44-6.03 13.47-13.47 13.47h-214.06c-7.44 0-13.47-6.03-13.47-13.47v-67.7c0-3.66.31-7.26.91-10.75 5.1-29.65 30.93-52.2 62.04-52.2h115.1c31.17 0 57.04 22.65 62.07 52.38.58 3.44.88 6.97.88 10.57z" fill="#9cf8d2"/><path d="m369.926 414.45v42.82c0 7.44-6.03 13.47-13.47 13.47h-214.06c-7.44 0-13.47-6.03-13.47-13.47v-42.82c0-34.77 28.18-62.95 62.95-62.95h115.1c34.77 0 62.95 28.18 62.95 62.95z" fill="#c2fae3"/><path d="m249.868 416.573h72.059v26.515h-72.059z" fill="#fff6ce"/><g><g><path d="m369.926 389.57v4.43s0 0-.01 0l-191.78-.14-15-.01-34.21-.03v-4.25c0-3.66.31-7.26.91-10.75l40.21.03h1.17c.01-.01.02-.01.03 0l197.8.15c.58 3.44.88 6.97.88 10.57z" fill="#5de1c4"/></g><g><path d="m170.633 423.412c-4.142 0-7.5-3.358-7.5-7.5v-29.588c0-4.142 3.358-7.5 7.5-7.5s7.5 3.358 7.5 7.5v29.588c0 4.142-3.358 7.5-7.5 7.5z" fill="#5de1c4"/></g></g><g><circle cx="60.581" cy="397.155" fill="#5de1c4" r="7.345"/></g><g><circle cx="437.272" cy="397.155" fill="#5de1c4" r="7.345"/></g><path d="m351.691 141.324h-205.882v-16.295c0-8.057 6.531-14.588 14.588-14.588h176.707c8.057 0 14.588 6.531 14.588 14.588v16.295z" fill="#d7d0d6"/></g></svg>