<svg id="Capa_1" enable-background="new 0 0 512 512" height="512" viewBox="0 0 512 512" width="512" xmlns="http://www.w3.org/2000/svg"><g><g><path d="m288.914 227.369-79.858-135.145h-126.112l-79.858 135.145c-2.74 4.637-2.784 10.387-.114 15.065 2.669 4.678 7.642 7.566 13.028 7.566h260c5.386 0 10.358-2.888 13.028-7.566 2.669-4.678 2.626-10.428-.114-15.065z" fill="#9d5e4a"/><path d="m209.056 92.224h-63.056v157.776h130c5.386 0 10.358-2.888 13.028-7.566 2.669-4.678 2.626-10.428-.114-15.065z" fill="#734536"/><path d="m158.914 7.369c-2.699-4.567-7.609-7.369-12.914-7.369s-10.215 2.802-12.914 7.369l-50.142 84.855 55.788 30.898c2.261 1.252 4.764 1.878 7.268 1.878s5.007-.626 7.268-1.878l55.788-30.898z" fill="#f5f0eb"/><path d="m153.268 123.122 55.788-30.898-50.142-84.855c-2.699-4.567-7.609-7.369-12.914-7.369v125c2.503 0 5.007-.626 7.268-1.878z" fill="#ebe1dc"/></g><g><path d="m508.993 267.504-101.917-176.656h-122.151l-101.918 176.656c-2.678 4.641-2.676 10.358.003 14.998 2.68 4.64 7.631 7.498 12.989 7.498h300c5.358 0 10.31-2.858 12.989-7.498 2.681-4.64 2.682-10.356.005-14.998z" fill="#9d5e4a"/><path d="m407.076 90.848h-61.076v199.152h150c5.358 0 10.31-2.858 12.989-7.498 2.68-4.64 2.681-10.356.004-14.998z" fill="#734536"/><path d="m358.993 7.504c-2.68-4.643-7.633-7.504-12.993-7.504s-10.313 2.861-12.993 7.504l-48.082 83.343 53.358 32.015c2.375 1.425 5.047 2.138 7.718 2.138s5.343-.712 7.718-2.138l53.358-32.015z" fill="#f5f0eb"/><path d="m353.718 122.862 53.358-32.015-48.083-83.343c-2.68-4.643-7.633-7.504-12.993-7.504v125c2.671 0 5.343-.712 7.718-2.138z" fill="#ebe1dc"/></g><path d="m116 420c-8.284 0-15 6.716-15 15v62h30v-62c0-8.284-6.716-15-15-15z" fill="#9d5e4a"/><path d="m131 497v-62c0-8.284-6.716-15-15-15v77z" fill="#734536"/><path d="m186 450h-140c-5.593 0-10.722-3.112-13.305-8.073s-2.191-10.947 1.016-15.529l42-60c2.808-4.01 7.394-6.398 12.289-6.398h56c4.895 0 9.481 2.388 12.289 6.398l42 60c3.208 4.582 3.599 10.568 1.016 15.529s-7.712 8.073-13.305 8.073z" fill="#beda4b"/><path d="m156.289 366.398c-2.808-4.01-7.394-6.398-12.289-6.398h-28v90h70c5.593 0 10.722-3.112 13.305-8.073s2.191-10.947-1.016-15.529z" fill="#14cd6e"/><path d="m181 390h-130c-5.5 0-10.56-3.011-13.184-7.845-2.624-4.835-2.391-10.718.607-15.33l39-60c2.767-4.257 7.5-6.825 12.577-6.825h52c5.077 0 9.81 2.568 12.577 6.825l39 60c2.998 4.612 3.231 10.495.607 15.33-2.624 4.834-7.684 7.845-13.184 7.845z" fill="#14cd6e"/><path d="m154.577 306.825c-2.767-4.257-7.5-6.825-12.577-6.825h-26v90h65c5.5 0 10.56-3.011 13.184-7.845 2.624-4.835 2.391-10.718-.607-15.33z" fill="#00a084"/><path d="m176 330h-120c-5.404 0-10.391-2.907-13.053-7.609s-2.589-10.474.191-15.108l60-100c2.711-4.518 7.593-7.283 12.862-7.283s10.151 2.765 12.862 7.283l60 100c2.78 4.634 2.854 10.405.191 15.108s-7.649 7.609-13.053 7.609z" fill="#beda4b"/><path d="m176 330c5.404 0 10.391-2.907 13.053-7.609s2.589-10.474-.191-15.108l-60-100c-2.711-4.518-7.593-7.283-12.862-7.283v130z" fill="#14cd6e"/><path d="m316 420c-8.284 0-15 6.716-15 15v62h30v-62c0-8.284-6.716-15-15-15z" fill="#9d5e4a"/><path d="m331 497v-62c0-8.284-6.716-15-15-15v77z" fill="#734536"/><path d="m386 450h-140c-5.593 0-10.722-3.112-13.305-8.073s-2.191-10.947 1.016-15.529l42-60c2.807-4.01 7.394-6.398 12.288-6.398h56c4.895 0 9.481 2.388 12.288 6.398l42 60c3.208 4.582 3.6 10.568 1.017 15.529s-7.711 8.073-13.304 8.073z" fill="#beda4b"/><path d="m356.288 366.398c-2.807-4.01-7.393-6.398-12.288-6.398h-28v90h70c5.593 0 10.722-3.112 13.305-8.073s2.191-10.947-1.017-15.529z" fill="#14cd6e"/><path d="m381 390h-130c-5.5 0-10.56-3.011-13.184-7.845-2.624-4.835-2.391-10.718.607-15.33l39-60c2.767-4.257 7.5-6.825 12.577-6.825h52c5.077 0 9.81 2.568 12.576 6.825l39 60c2.998 4.612 3.231 10.495.607 15.33-2.623 4.834-7.682 7.845-13.183 7.845z" fill="#14cd6e"/><path d="m354.576 306.825c-2.766-4.257-7.499-6.825-12.576-6.825h-26v90h65c5.501 0 10.56-3.011 13.184-7.845 2.624-4.835 2.391-10.718-.607-15.33z" fill="#00a084"/><path d="m376 330h-120c-5.404 0-10.391-2.907-13.053-7.609s-2.589-10.474.191-15.108l60-100c2.711-4.518 7.593-7.283 12.862-7.283s10.151 2.765 12.862 7.283l60 100c2.78 4.634 2.854 10.405.19 15.108-2.661 4.702-7.648 7.609-13.052 7.609z" fill="#beda4b"/><path d="m376 330c5.404 0 10.391-2.907 13.053-7.609 2.663-4.703 2.59-10.474-.19-15.108l-60-100c-2.712-4.518-7.594-7.283-12.863-7.283v130z" fill="#14cd6e"/><g><path d="m496.971 512h-481.942c-8.3 0-15.029-6.716-15.029-15s6.729-15 15.029-15h481.941c8.301 0 15.029 6.716 15.029 15s-6.728 15-15.028 15z" fill="#beda4b"/><path d="m496.971 482h-240.971v30h240.971c8.301 0 15.029-6.716 15.029-15s-6.729-15-15.029-15z" fill="#14cd6e"/></g></g></svg>