<svg id="Capa_1" enable-background="new 0 0 490 490" height="512" viewBox="0 0 490 490" width="512" xmlns="http://www.w3.org/2000/svg"><g><g><path d="m481.031 433.249h-160.64c-4.142 0-7.5-3.358-7.5-7.5s3.358-7.5 7.5-7.5h160.64c4.142 0 7.5 3.358 7.5 7.5s-3.358 7.5-7.5 7.5z" fill="#d7d0d6"/></g><g><path d="m285.629 433.249h-272.347c-4.142 0-7.5-3.358-7.5-7.5s3.358-7.5 7.5-7.5h272.347c4.142 0 7.5 3.358 7.5 7.5s-3.358 7.5-7.5 7.5z" fill="#d7d0d6"/></g><path d="m119.853 62.639v41.685h38.027s-.716-30.049-29.176-46.757c-3.914-2.298-8.851.533-8.851 5.072z" fill="#5de1c4"/><path d="m102.959 104.324h32.518v54.419h-32.518z" fill="#d7d0d6"/><path d="m296.749 104.324h32.518v54.419h-32.518z" fill="#d7d0d6"/><path d="m490 299.488v75.207c0 3.498-2.835 6.333-6.333 6.333h-474.209c-5.223 0-9.458-4.234-9.458-9.458v-133.042c0-21 6.31-40.54 17.13-56.82h422.87c8 7.73 15.2 16.26 21.5 25.47 11 16.07 19.21 34.22 23.91 53.71 3 12.37 4.59 25.31 4.59 38.6z" fill="#baafb9"/><path d="m454.97 304.278v68.063c0 4.798-3.889 8.687-8.687 8.687h-436.812c-5.231 0-9.471-4.24-9.471-9.471v-133.029c0-21 6.31-40.54 17.13-56.82h390.65c19.88 22.04 34.98 49.74 42.07 79.47 3.35 13.81 5.12 28.25 5.12 43.1z" fill="#d7d0d6"/><circle cx="86.514" cy="381.039" fill="#596c76" r="44.699"/><path d="m490 300.418v74.275c0 3.499-2.836 6.335-6.335 6.335h-474.203c-5.226 0-9.462-4.236-9.462-9.462v-106.668h349.79s54.13-2.34 103.75 16.42c12.79 4.83 25.27 11.06 36.46 19.1z" fill="#f4d902"/><path d="m454.97 304.278v68.063c0 4.798-3.889 8.687-8.687 8.687h-436.813c-5.23 0-9.47-4.24-9.47-9.47v-106.66h349.79s54.13-2.34 103.75 16.42c.94 7.52 1.43 15.18 1.43 22.96z" fill="#fee903"/><circle cx="374.229" cy="381.039" fill="#596c76" r="44.699"/><path d="m86.51 344.875v36.159h-77.026c-5.238 0-9.484-4.246-9.484-9.484v-26.675z" fill="#baafb9"/><path d="m126.284 237.344h-74.43c-2.743 0-4.967-2.224-4.967-4.967v-20.227c0-2.743 2.224-4.967 4.967-4.967h74.43c2.743 0 4.967 2.224 4.967 4.967v20.227c0 2.743-2.224 4.967-4.967 4.967z" fill="#eaf6ff"/><path d="m242.295 237.344h-74.43c-2.743 0-4.967-2.224-4.967-4.967v-20.227c0-2.743 2.224-4.967 4.967-4.967h74.43c2.743 0 4.967 2.224 4.967 4.967v20.227c0 2.743-2.224 4.967-4.967 4.967z" fill="#eaf6ff"/><path d="m485.41 260.89-39.33-13.08-31.48-10.46h-97.311c-2.363 0-4.279-1.916-4.279-4.279v-21.612c0-2.363 1.916-4.279 4.279-4.279h144.211c11 16.07 19.21 34.22 23.91 53.71z" fill="#c8effe"/><path d="m446.08 247.81-31.48-10.46h-97.362c-2.335 0-4.228-1.893-4.228-4.228v-21.714c0-2.335 1.893-4.228 4.228-4.228h109.772c7.93 12.63 14.42 26.32 19.07 40.63z" fill="#eaf6ff"/><g><path d="m379.863 111.813h-323.074c-4.142 0-7.5-3.358-7.5-7.5s3.358-7.5 7.5-7.5h323.074c4.142 0 7.5 3.358 7.5 7.5s-3.358 7.5-7.5 7.5z" fill="#0ab69f"/></g><g><path d="m167.125 324.187h-44.013c-4.142 0-7.5-3.358-7.5-7.5s3.358-7.5 7.5-7.5h44.013c4.142 0 7.5 3.358 7.5 7.5s-3.358 7.5-7.5 7.5z" fill="#baafb9"/></g><g><path d="m167.125 352.717h-44.013c-4.142 0-7.5-3.358-7.5-7.5s3.358-7.5 7.5-7.5h44.013c4.142 0 7.5 3.358 7.5 7.5s-3.358 7.5-7.5 7.5z" fill="#baafb9"/></g><g><path d="m270.96 181.708h15v83.19h-15z" fill="#baafb9"/><path d="m304.25 381.028h-15c0-57.64-16.14-76.81-16.31-76.98-1.27-1.39-1.98-3.2-1.98-5.08v-34.07h15v31.57c5.13 7.4 18.29 31.6 18.29 84.56z" fill="#f4d902"/></g><g><path d="m490 328.828v15h-29.14c-4.14 0-7.5-3.36-7.5-7.5s3.36-7.5 7.5-7.5z" fill="#5f99d7"/></g><g><circle cx="374.229" cy="381.028" fill="#eaf6ff" r="8.109"/></g><g><path d="m351.864 300.088h-28.264c-4.142 0-7.5-3.358-7.5-7.5s3.358-7.5 7.5-7.5h28.264c4.142 0 7.5 3.358 7.5 7.5s-3.358 7.5-7.5 7.5z" fill="#f4d902"/></g><path d="m440 181.708h-422.87c.01 0 .01-.01.01-.01 18.41-27.68 49.87-45.92 85.61-45.92h223.54c6.62 0 13.14.39 19.55 1.16 36.4 4.32 69.12 20.59 94.15 44.76z" fill="#fedba6"/></g></svg>