<svg id="Capa_1" enable-background="new 0 0 512 512" height="512" viewBox="0 0 512 512" width="512" xmlns="http://www.w3.org/2000/svg"><g><path d="m303.848 122.683 17.25 6.962c6.811 2.749 12.11 7.999 14.921 14.785 2.81 6.785 2.776 14.245-.097 21.005l-7.273 17.122c-2.222 4.987 2.706 12.535 9.972 9.971l17.12-7.275c6.759-2.871 14.219-2.906 21.006-.095 6.785 2.811 12.036 8.11 14.784 14.92l6.962 17.251c1.955 5.099 10.778 6.95 14.103 0l6.962-17.251c2.749-6.81 7.999-12.109 14.784-14.92 6.786-2.811 14.246-2.777 21.006.095l17.122 7.275c4.988 2.224 12.535-2.707 9.971-9.971l-7.275-17.123c-2.872-6.758-2.906-14.218-.096-21.004 2.811-6.785 8.11-12.037 14.921-14.785l17.25-6.962c5.099-1.955 6.95-10.778 0-14.103l-17.25-6.962c-6.811-2.749-12.11-8-14.921-14.785-2.81-6.785-2.776-14.245.096-21.004l7.275-17.121c2.223-4.988-2.707-12.537-9.971-9.972l-17.122 7.275c-6.759 2.872-14.219 2.906-21.006.095-6.785-2.811-12.036-8.11-14.784-14.92l-6.962-17.251c-1.955-5.099-10.778-6.95-14.103 0l-6.962 17.251c-2.749 6.81-7.999 12.109-14.784 14.92-6.789 2.81-14.249 2.775-21.005-.095l-17.121-7.275c-4.99-2.222-12.535 2.707-9.972 9.971l7.274 17.122c2.872 6.759 2.906 14.22.096 21.005-2.811 6.785-8.11 12.036-14.921 14.784l-17.25 6.962c-5.099 1.955-6.95 10.778 0 14.103zm46.22-30.03c4.355-10.514 4.333-22.065-.057-32.554 10.491 4.389 22.042 4.413 32.555.057s18.666-12.54 22.978-23.06c4.312 10.521 12.464 18.705 22.978 23.06 10.515 4.355 22.066 4.332 32.555-.057-4.39 10.489-4.413 22.04-.057 32.553 4.354 10.514 12.54 18.666 23.06 22.979-10.521 4.313-18.706 12.465-23.06 22.98-4.355 10.514-4.334 22.065.057 32.553-10.488-4.389-22.04-4.412-32.555-.057-10.514 4.355-18.666 12.54-22.978 23.06-4.312-10.521-12.464-18.705-22.978-23.06-5.234-2.167-10.724-3.251-16.212-3.251-5.539 0-11.075 1.103-16.344 3.308 4.391-10.489 4.413-22.04.058-32.554s-12.541-18.667-23.061-22.979c10.523-4.312 18.707-12.464 23.061-22.978z"/><path d="m405.545 155.752c22.123 0 40.121-17.998 40.121-40.121s-17.999-40.121-40.121-40.121-40.121 17.998-40.121 40.121 17.998 40.121 40.121 40.121zm0-65.034c13.737 0 24.913 11.176 24.913 24.913s-11.176 24.913-24.913 24.913-24.913-11.176-24.913-24.913 11.176-24.913 24.913-24.913z"/><path d="m504.396 256.658c-26.64 0-51.288 4.963-77.57 15.619-3.891 1.577-5.767 6.012-4.189 9.904 1.576 3.89 6.009 5.766 9.904 4.189 21.875-8.869 42.487-13.491 64.251-14.354v205.37c0 5.524-4.493 10.017-10.017 10.017h-71.331c1.201-4.11 1.019-8.5-.618-12.649l-15.558-39.393c4.494-2.79 8.532-6.307 11.875-10.425l60.902-74.995c8.767-10.791 6.685-27.162-4.454-35.442-10.496-7.802-25.723-5.952-33.976 4.229l-54.82 67.514c-3.508 4.322-8.713 6.8-14.282 6.8h-133.931c-13.762 0-25.063 11.001-25.194 24.532-.056 6.698 2.521 12.994 7.255 17.729 3.479 3.48 7.815 5.794 12.534 6.749l-12.913 32.705c-1.636 4.146-1.816 8.536-.614 12.646h-92.496l23.03-87.754c47.042-16.258 98.14-14.785 144.739-32.457 23.058-8.745 43.06-22.397 63.697-35.609 17.679-11.318 35.555-22.412 54.146-32.184 3.718-1.953 5.148-6.551 3.193-10.268-1.954-3.719-6.553-5.145-10.268-3.193-14.331 7.532-30.074 16.824-50.807 29.99h-182.728l10.301-39.252 31.922 8.375c3.689.965 7.317-.996 8.918-4.357 1.611-3.38 3.521-6.725 8.031-5.54 4.162 1.093 4.615 4.655 4.368 8.23-.271 3.928 1.395 7.639 5.531 8.724l49.608 13.007c.647.169 1.295.25 1.934.25 3.372 0 6.452-2.26 7.35-5.674 19.467-74.107-26.21-152.329-100.361-171.757-74.32-19.513-152.311 26.262-171.758 100.361-.513 1.951-.229 4.026.789 5.767 1.018 1.742 2.686 3.007 4.637 3.519l49.618 13.008c3.497.917 6.949-.798 8.666-3.87 1.893-3.387 3.287-7.343 8.259-6.04 3.712.973 4.786 4.278 4.485 7.668-.364 4.108.914 8.105 5.426 9.288l32.08 8.416-13.088 49.876h-113.268c-4.2 0-7.604 3.404-7.604 7.604v153.853c0 5.676 1.843 11.032 5.325 15.494.006.008.011.017.017.026 4.82 6.167 12.066 9.705 19.882 9.705h461.55c13.909 0 25.225-11.316 25.225-25.225v-213.122c.001-4.2-3.403-7.604-7.603-7.604zm-104.224 227.889c-1.217 1.788-3.423 2.855-5.902 2.855-2.89 0-5.532-1.574-6.422-3.828l-16.202-41.026c4.577.046 9.13-.232 13.595-1.304l15.44 39.093c.715 1.812.118 3.289-.509 4.21zm-44.876-41.998 17.713 44.853h-118.924l17.714-44.853zm-134.7-24.838c.049-5.217 4.53-9.461 9.986-9.461h133.932c10.172 0 19.681-4.529 26.089-12.423l54.823-67.518c1.814-2.238 4.517-3.521 7.416-3.521 6.345-.125 12.891 7.887 7.4 15.564 0 0 0 0-.001 0l-60.904 74.998c-5.507 6.656-14.778 12.05-25.191 11.99h-143.999c-3.961-.098-9.191-3.034-9.551-9.629zm6.327 66.831c-.627-.921-1.224-2.397-.512-4.203l14.921-37.79h14.116l-16.201 41.023c-.892 2.255-3.529 3.831-6.413 3.831-2.483-.001-4.692-1.07-5.911-2.861zm93.262-151.377c-30.081 19.655-63.471 28.691-98.604 34.155-25.161 3.914-50.378 7.384-74.806 14.835l6.158-23.464h60.059c4.2 0 7.604-3.404 7.604-7.604s-3.404-7.604-7.604-7.604h-56.068l3.239-12.343h163.129c-1.018.663-2.047 1.334-3.107 2.025zm-258.164-152.264c4.784-5.403 10.063-10.4 15.706-14.9 12.557 7.31 49.603 27.229 100.441 40.031 4.074 1.027 8.206-1.445 9.231-5.517 1.026-4.072-1.444-8.205-5.517-9.23-41.842-10.537-74.478-26.409-90.237-34.948 8.664-5.192 17.884-9.304 27.548-12.283 37.364 23.733 83.696 35.492 127.748 33.483 7.05 7.418 13.146 15.587 18.171 24.436-5.083 0-10.195-.111-15.299-.361-11.704-.574-23.695-1.822-35.641-3.707-4.145-.655-8.042 2.178-8.696 6.326s2.177 8.042 6.326 8.696c12.481 1.97 25.019 3.274 37.266 3.875 7.804.382 15.639.484 23.359.309 2.765 6.836 4.93 13.917 6.443 21.134-31.796.99-63.931-2.923-94.937-9.781-20.231-4.475-40.144-10.386-59.526-17.715-6.151-2.325-62.588-29.62-62.386-29.848zm80.42-41.641c30.743-3.34 62.22 5.013 87.258 23.153-30.417-1.178-60.592-9.465-87.767-23.091.169-.02.339-.041.509-.062zm-46.595 86.714c-8.485-2.23-17.872 1.155-22.965 8.327l-36.023-9.444c3.7-11.326 8.948-21.932 15.628-31.69 67.835 39.818 149.508 63.237 228.593 60.225.998 11.718.359 23.448-1.957 35.028l-36.03-9.448c-.923-8.622-7.044-16.201-15.903-18.528-8.868-2.325-17.923 1.268-22.958 8.321l-33.24-8.721c-.01-.003-.019-.007-.029-.009l-25.786-6.767c-.023-.006-.045-.008-.068-.014l-33.36-8.752c-.921-8.607-7.037-16.184-15.902-18.528zm63.901 46.843-56.314 214.585h-11.832l57.07-217.491zm-42.865 58.319-3.24 12.347h-47.957c-4.2 0-7.604 3.404-7.604 7.604s3.404 7.604 7.604 7.604h43.966l-11.443 43.609c-43.166 22.696-69.001 49.049-83.001 67.044v-110.653h17.171c4.2 0 7.604-3.404 7.604-7.604s-3.404-7.604-7.604-7.604h-17.17v-12.347zm-95.492 155.508c9.847-14.487 31.422-40.378 71.474-63.975l-16.986 64.734h-50.653c-1.34-.001-2.638-.263-3.835-.759z"/></g></svg>